<svg width="56" height="56" viewBox="0 0 56 56" fill="none" xmlns="http://www.w3.org/2000/svg">
<path d="M29.3334 38.2166L26.288 36.5555L24.0732 40.1546L26.5649 41.5388" stroke="#191919" stroke-width="3" stroke-linecap="round" stroke-linejoin="round"/>
<path d="M32.9325 14.6844L29.0566 21.6057L33.4862 24.3741L37.6389 17.4529" stroke="#191919" stroke-width="3" stroke-linejoin="round"/>
<path d="M44.283 37.3861L36.5312 32.9565" stroke="#191919" stroke-width="3" stroke-linecap="round" stroke-linejoin="round"/>
<path d="M46.4981 32.9564L38.7463 28.5269" stroke="#191919" stroke-width="3" stroke-linecap="round" stroke-linejoin="round"/>
<path d="M49.2664 29.0806L41.5146 24.651" stroke="#191919" stroke-width="3" stroke-linecap="round" stroke-linejoin="round"/>
<path d="M38.4692 43.4769C36.9004 42.4618 33.2645 41.1513 31.2712 44.0306C29.2779 46.9098 30.9943 49.8444 32.1017 50.9518" stroke="#191919" stroke-width="3"/>
<path d="M12.1687 13.0234L2.75586 7.48645" stroke="#191919" stroke-width="2" stroke-linecap="round" stroke-linejoin="round"/>
<path d="M23.5195 19.391L21.0278 18.0067" stroke="#191919" stroke-width="3" stroke-linecap="round" stroke-linejoin="round"/>
<path d="M25.7343 15.515L23.2427 14.1307" stroke="#191919" stroke-width="3" stroke-linecap="round" stroke-linejoin="round"/>
<path d="M21.3049 23.2668L18.8132 21.8826" stroke="#191919" stroke-width="3" stroke-linecap="round" stroke-linejoin="round"/>
<path d="M16.0446 10.8087L12.7224 16.3457" stroke="#191919" stroke-width="3"/>
<path d="M18.2594 12.4697L14.9373 18.0067" stroke="#191919" stroke-width="3"/>
<path d="M21.1343 13.6466L15.0436 10.6013C11.4446 8.9402 7.8456 13.6466 11.4446 16.4151L17.5353 20.0141" stroke="#191919" stroke-width="3"/>
<path d="M27.6724 13.5771L24.0734 11.3623C23.612 11.1778 22.5231 10.9747 21.8586 11.6392C21.1942 12.3036 17.7059 18.3758 16.0448 21.3289C15.5834 21.9749 14.9374 23.4329 16.0448 24.0974C17.1522 24.7618 18.721 25.6662 19.367 26.0353" stroke="#191919" stroke-width="3"/>
<path d="M31.825 35.725L24.3501 44.5842L19.9205 42.0925C18.8131 41.5388 17.7057 41.5388 16.8752 42.6462L15.2141 45.1379L29.8871 53.7202L40.961 40.7083M40.961 40.7083L43.7295 42.0925C44.2832 42.1848 45.6121 42.2033 46.498 41.5388C47.3839 40.8744 51.8504 32.5874 53.9729 28.527C54.0652 27.881 53.9729 26.4229 52.8655 25.7585C51.7581 25.094 38.008 17.1762 31.2713 13.3003C30.4408 12.8389 28.5028 12.1929 27.3954 13.3003C26.2881 14.4077 21.9508 22.0672 19.9205 25.7585C19.6437 26.4967 19.4776 28.1947 21.0279 29.0807C22.5783 29.9666 34.9626 37.2015 40.961 40.7083Z" stroke="#191919" stroke-width="3" stroke-linejoin="round"/>
</svg>
