<svg width="56" height="56" viewBox="0 0 56 56" fill="none" xmlns="http://www.w3.org/2000/svg">
<path d="M16.3514 23.5217L34.0723 9.48264C34.5637 9.07993 35.7535 8.52721 36.5819 9.53801L42.9677 17.3296C43.1978 17.6104 43.482 18.3866 42.7777 19.2454L37.0441 23.794" stroke="#191919" stroke-width="3"/>
<path d="M13.6287 23.5218L21.4691 8.78695C21.7716 8.22831 22.664 7.26661 23.8132 7.88896L31.3263 11.8141" stroke="#191919" stroke-width="3"/>
<path d="M14.1732 20.799H10.9059C8.45548 20.799 8.50995 23.794 10.9059 23.794H43.034C44.0324 23.7032 46.0835 24.1752 46.3013 26.789V33.3235" stroke="#191919" stroke-width="3" stroke-linecap="round" stroke-linejoin="round"/>
<path d="M46.3013 40.6749V47.4817C46.2468 48.6252 45.2122 49.6599 43.3063 49.6599H11.7227C9 49.6599 9 47.4817 9 47.4817V22.9772M47.3904 33.0513H39.2222C34.8658 33.0513 34.5936 40.4026 39.2222 40.4026H47.3904V33.0513Z" stroke="#191919" stroke-width="3" stroke-linecap="round" stroke-linejoin="round"/>
<circle cx="39.4944" cy="36.5908" r="1" stroke="#191919" stroke-width="1.26726"/>
<path d="M35.6828 23.4581C35.349 23.7693 35.0322 24.0182 34.7324 24.2048C34.4326 24.3915 34.178 24.516 33.9687 24.5782L33.3408 23.2884C33.5049 23.2488 33.7057 23.1668 33.9433 23.0423C34.1865 22.9122 34.4467 22.7312 34.7239 22.4993L32.9844 20.7598C32.7299 20.856 32.4668 20.9437 32.1953 21.0229C31.9294 21.0964 31.6607 21.1332 31.3892 21.1332C31.1177 21.1332 30.8461 21.0822 30.5746 20.9804C30.3031 20.8673 30.0372 20.6806 29.777 20.4204C29.2905 19.9339 29.0416 19.4304 29.0303 18.91C29.019 18.3783 29.1943 17.8522 29.5564 17.3318L28.7842 16.5596L29.6667 15.6771L30.4049 16.4153C30.6708 16.1834 30.9225 15.9996 31.1601 15.8638C31.3977 15.728 31.6296 15.6149 31.8559 15.5244L32.4923 16.7717C32.3509 16.8226 32.184 16.899 31.9917 17.0008C31.7993 17.1027 31.5985 17.2356 31.3892 17.3996L32.976 18.9864C33.2305 18.8902 33.4964 18.8054 33.7736 18.7318C34.0508 18.647 34.3251 18.6045 34.5966 18.6045C34.8738 18.5989 35.1482 18.647 35.4197 18.7488C35.6912 18.8393 35.9543 19.0118 36.2088 19.2664C36.7293 19.7868 37.0036 20.3271 37.0319 20.8871C37.0602 21.4358 36.8877 21.9817 36.5143 22.5247L37.3034 23.3139L36.421 24.1963L35.6828 23.4581ZM35.233 20.4968C35.052 20.3157 34.8314 20.2422 34.5712 20.2761C34.311 20.2988 34.031 20.3638 33.7311 20.4713L35.2415 21.9817C35.4621 21.7045 35.5668 21.4415 35.5555 21.1926C35.5498 20.938 35.4423 20.7061 35.233 20.4968ZM30.7868 19.224C30.9565 19.3937 31.1629 19.47 31.4062 19.4531C31.6551 19.4304 31.9266 19.3682 32.2208 19.2664L30.8461 17.8918C30.5916 18.169 30.4728 18.4179 30.4898 18.6385C30.5124 18.8534 30.6114 19.0486 30.7868 19.224Z" fill="black"/>
</svg>
