<svg width="56" height="56" viewBox="0 0 56 56" fill="none" xmlns="http://www.w3.org/2000/svg">
<path d="M27.3525 49.2947L20.7825 43.9565" stroke="#191919" stroke-width="3" stroke-linecap="round" stroke-linejoin="round"/>
<path d="M18.1134 40.6715C16.8816 37.7971 19.9613 34.3752 20.3719 34.1014" stroke="#191919" stroke-width="3" stroke-linecap="round" stroke-linejoin="bevel"/>
<path d="M22.425 31.2271C25.2643 28.3363 26.6193 27.0113 26.942 26.7102" stroke="#191919" stroke-width="3" stroke-linecap="round" stroke-linejoin="bevel"/>
<path d="M28.79 23.8358C29.5429 23.1514 30.6379 22.3986 30.6379 20.5508" stroke="#191919" stroke-width="2" stroke-linecap="round" stroke-linejoin="bevel"/>
<path d="M30.4325 17.2656C29.1185 15.2946 28.1056 14.5281 27.7634 14.3912" stroke="#191919" stroke-width="2" stroke-linecap="round" stroke-linejoin="bevel"/>
<path d="M49.2553 49.2948C44.4372 47.0694 28.4775 40.5955 30.0584 33.3123C31.4678 26.8193 41.1248 21.1737 35.9304 16.7229C31.7748 13.1622 26.3262 9.25846 19.9614 7" stroke="#191919" stroke-width="3" stroke-linecap="round" stroke-linejoin="round"/>
<path d="M14.5571 49.5001C10.3139 47.2417 2.9363 41.575 7.37109 36.9759C12.9146 31.2271 19.2793 28.1474 23.1803 23.6305C23.1803 23.6305 31.5982 14.5967 17.0209 8.02661" stroke="#191919" stroke-width="3" stroke-linecap="round" stroke-linejoin="round"/>
</svg>
