<svg width="56" height="56" viewBox="0 0 56 56" fill="none" xmlns="http://www.w3.org/2000/svg">
<path d="M24.2258 28.7614C25.1154 24.4019 25.6314 15.4161 20.4891 15.4161C18.6208 15.4161 16.4856 16.4838 16.2186 19.6866" stroke="#191919" stroke-width="3"/>
<path d="M15.952 19.6866C14.3506 18.53 15.1513 14.0816 18.621 12.7471C25.7546 10.0034 31.9662 20.2204 32.2331 28.2275" stroke="#191919" stroke-width="3"/>
<path d="M37.838 42.6404C37.6245 44.3486 37.5711 47.6226 37.5711 49.0461C29.2971 47.4447 27.6957 47.4447 18.0871 49.0461C18.0871 47.4447 18.0871 43.9215 18.0871 42.6404M37.838 42.6404C38.1049 38.2809 40.3469 29.4553 45.0444 29.0283C50.9163 28.4945 52.5177 33.8325 50.6494 39.4375M37.838 42.6404C31.4323 45.8432 22.0017 43.9749 18.0871 42.6404M18.0871 42.6404C18.0871 41.039 18.0871 31.4304 11.9483 29.0283C5.80951 26.6261 1.80595 34.0995 5.54261 39.9713" stroke="#191919" stroke-width="3"/>
<path d="M51.1832 40.2381C53.6743 37.1242 56.7881 29.6153 49.3148 24.4908C39.9732 18.0851 28.4963 30.8965 27.9625 34.9" stroke="#191919" stroke-width="3"/>
<circle cx="49.5818" cy="41.5728" r="1.5" stroke="#191919" stroke-width="2.33808"/>
<circle cx="17.5532" cy="20.7542" r="1.5" stroke="#191919" stroke-width="2.33808"/>
<circle cx="6.87705" cy="42.1065" r="1.5" stroke="#191919" stroke-width="2.33808"/>
<path d="M5.27564 41.039C2.25073 38.192 -1.77063 31.0567 6.34326 25.2916C16.4856 18.0852 26.0942 30.6297 27.6956 34.0994C29.297 37.5692 31.6992 42.1066 30.8984 44.2418" stroke="#191919" stroke-width="3"/>
</svg>
