<svg width="56" height="56" viewBox="0 0 56 56" fill="none" xmlns="http://www.w3.org/2000/svg">
<path d="M28.0625 14.0779H9C9 13.157 9.44203 11.3152 11.2101 11.3152C12.9783 11.3152 18.9456 11.3152 21.7083 11.3152C22.0767 11.2231 22.8134 10.8732 22.8134 10.2101C22.8134 9.5471 22.8134 9.38134 22.8134 9.10507C22.8134 8.55254 23.0897 8 24.1947 8C25.2998 8 27.2337 8 28.0625 8" stroke="#191919" stroke-width="3"/>
<path d="M28.0625 17.9457L47.125 17.9457C47.125 18.8666 46.683 20.7084 44.9148 20.7084C44.3623 20.6163 43.2572 20.6531 43.2572 21.5372C43.2572 22.4212 40.8629 38.85 39.6658 46.9538C39.6657 47.4143 39.3895 48.4457 38.2844 48.8877L28.0625 48.8877" stroke="#191919" stroke-width="3"/>
<path d="M28.3388 17.9457L9.27627 17.9457C9.27627 18.8666 9.7183 20.7084 11.4864 20.7084C12.039 20.6163 13.144 20.6531 13.144 21.5372C13.144 22.4212 15.5383 38.85 16.7355 46.9538C16.7355 47.4143 17.0118 48.4457 18.1169 48.8877L28.3388 48.8877" stroke="#191919" stroke-width="3"/>
<path d="M28.0625 14.0779H47.125C47.125 13.157 46.683 11.3152 44.9148 11.3152C43.1467 11.3152 37.1793 11.3152 34.4167 11.3152C34.0483 11.2231 33.3116 10.8732 33.3116 10.2101C33.3116 9.5471 33.3116 9.38134 33.3116 9.10507C33.3116 8.55254 33.0353 8 31.9302 8C30.8252 8 28.8913 8 28.0625 8" stroke="#191919" stroke-width="3"/>
<path d="M24.5325 31.3205H20.9065C20.8767 31.3205 20.8468 31.3189 20.8171 31.316C20.8036 31.3147 20.7906 31.3122 20.7773 31.3103C20.7613 31.308 20.7452 31.3061 20.7294 31.3029C20.7143 31.2999 20.6998 31.2958 20.6851 31.2921C20.6711 31.2887 20.6571 31.2856 20.6432 31.2814C20.6289 31.277 20.6152 31.2717 20.6012 31.2667C20.5873 31.2617 20.5732 31.2571 20.5594 31.2514C20.5465 31.2461 20.5342 31.2397 20.5215 31.2338C20.5073 31.2272 20.493 31.2208 20.479 31.2133C20.4671 31.2069 20.4557 31.1996 20.4441 31.1927C20.4304 31.1845 20.4164 31.1767 20.4029 31.1677C20.3904 31.1593 20.3786 31.1499 20.3665 31.1409C20.3549 31.1323 20.343 31.1242 20.3318 31.1149C20.3103 31.0972 20.2897 31.0786 20.2699 31.059C20.2685 31.0576 20.2669 31.0564 20.2655 31.055C20.2642 31.0536 20.2629 31.052 20.2615 31.0505C20.2419 31.0307 20.2232 31.0101 20.2055 30.9887C20.1965 30.9776 20.1886 30.966 20.1801 30.9547C20.171 30.9424 20.1614 30.9304 20.1528 30.9175C20.1438 30.9041 20.1361 30.8903 20.1279 30.8765C20.1209 30.8649 20.1135 30.8535 20.1072 30.8414C20.0997 30.8275 20.0934 30.8132 20.0867 30.799C20.0808 30.7864 20.0745 30.7741 20.0691 30.7611C20.0634 30.7472 20.0588 30.7331 20.0537 30.719C20.0487 30.7052 20.0434 30.6915 20.0391 30.6774C20.0348 30.6632 20.0317 30.6487 20.0281 30.6344C20.0245 30.62 20.0205 30.6059 20.0176 30.5913C20.0143 30.5747 20.0123 30.5579 20.0099 30.541C20.0082 30.5286 20.0057 30.5163 20.0045 30.5036C20.0015 30.4737 20 30.4436 20 30.4137V26.788C20 26.5476 20.0955 26.317 20.2655 26.147C20.4355 25.977 20.6661 25.8815 20.9065 25.8815C21.1469 25.8815 21.3775 25.977 21.5475 26.147C21.7175 26.317 21.813 26.5476 21.813 26.788V28.2256L22.8295 27.209C24.2473 25.7944 26.1683 25 28.1712 25C30.174 25 32.095 25.7944 33.5128 27.209C33.6805 27.3795 33.7741 27.6093 33.7731 27.8485C33.7721 28.0876 33.6767 28.3167 33.5076 28.4858C33.3385 28.6549 33.1094 28.7503 32.8703 28.7513C32.6312 28.7522 32.4013 28.6587 32.2309 28.491C31.1533 27.4159 29.6933 26.8121 28.1712 26.8121C26.6491 26.8121 25.1891 27.4159 24.1115 28.491L23.095 29.5076H24.5325C24.7729 29.5076 25.0035 29.6031 25.1735 29.7731C25.3435 29.9431 25.439 30.1737 25.439 30.4141C25.439 30.6545 25.3435 30.8851 25.1735 31.0551C25.0035 31.2251 24.7729 31.3206 24.5325 31.3206V31.3205ZM36.3378 34.5977C36.3366 34.585 36.3342 34.5728 36.3324 34.5603C36.33 34.5435 36.328 34.5266 36.3247 34.5099C36.3218 34.4954 36.3178 34.4812 36.3141 34.4669C36.3107 34.4526 36.3075 34.4382 36.3031 34.4239C36.2989 34.4098 36.2935 34.3962 36.2886 34.3823C36.2835 34.3682 36.2789 34.3541 36.2732 34.3403C36.2678 34.3273 36.2615 34.3149 36.2556 34.3023C36.2489 34.2881 36.2426 34.2738 36.2351 34.2599C36.2287 34.2478 36.2214 34.2365 36.2144 34.2248C36.2063 34.2111 36.1985 34.1972 36.1895 34.1838C36.181 34.171 36.1714 34.159 36.1621 34.1466C36.1537 34.1353 36.1458 34.1237 36.1368 34.1126C36.1191 34.0912 36.1004 34.0705 36.0809 34.0508L36.0768 34.0462C36.0753 34.0447 36.0738 34.0437 36.0723 34.0423C36.0526 34.0228 36.032 34.0041 36.0105 33.9864C35.9992 33.977 35.9872 33.9689 35.9755 33.9602C35.9635 33.9513 35.9518 33.942 35.9394 33.9337C35.9258 33.9245 35.9116 33.9166 35.8977 33.9083C35.8863 33.9015 35.8751 33.8943 35.8634 33.8881C35.8492 33.8805 35.8347 33.8741 35.8203 33.8673C35.8079 33.8615 35.7957 33.8552 35.783 33.8499C35.7689 33.8442 35.7546 33.8395 35.7404 33.8343C35.7268 33.8295 35.7132 33.8242 35.6992 33.82C35.6849 33.8157 35.6704 33.8124 35.6559 33.8088C35.6417 33.8053 35.6277 33.8013 35.6132 33.7984C35.5964 33.7951 35.5796 33.7931 35.5627 33.7907C35.5503 33.7889 35.538 33.7865 35.5255 33.7854C35.4955 33.7824 35.4655 33.7808 35.4354 33.7809H31.8098C31.5694 33.7809 31.3388 33.8764 31.1688 34.0464C30.9988 34.2164 30.9033 34.4469 30.9033 34.6874C30.9033 34.9278 30.9988 35.1584 31.1688 35.3284C31.3388 35.4984 31.5694 35.5939 31.8098 35.5939H33.2474L32.2308 36.6103C31.1533 37.6854 29.6933 38.2891 28.1712 38.2891C26.649 38.2891 25.1891 37.6854 24.1115 36.6103C23.9411 36.4426 23.7112 36.349 23.4721 36.35C23.2329 36.351 23.0039 36.4464 22.8348 36.6155C22.6657 36.7846 22.5702 37.0137 22.5693 37.2528C22.5683 37.4919 22.6619 37.7218 22.8296 37.8922C24.2474 39.3068 26.1684 40.1012 28.1712 40.1012C30.174 40.1012 32.095 39.3068 33.5128 37.8922L34.5293 36.8758V38.3134C34.5293 38.5538 34.6248 38.7844 34.7948 38.9544C34.9648 39.1244 35.1954 39.2199 35.4358 39.2199C35.6762 39.2199 35.9068 39.1244 36.0768 38.9544C36.2468 38.7844 36.3423 38.5538 36.3423 38.3134V34.6877C36.3423 34.6577 36.3408 34.6276 36.3378 34.5977Z" fill="#191919"/>
</svg>
