<svg width="56" height="56" viewBox="0 0 56 56" fill="none" xmlns="http://www.w3.org/2000/svg">
<path d="M29.3335 38.2167L26.2882 36.5556L24.0734 40.1546L26.565 41.5389" stroke="#191919" stroke-width="3" stroke-linecap="round" stroke-linejoin="round"/>
<path d="M32.9325 14.6846L29.0566 21.6058L33.4862 24.3743L37.6389 17.4531" stroke="#191919" stroke-width="3" stroke-linejoin="round"/>
<path d="M44.2832 37.3862L36.5314 32.9566" stroke="#191919" stroke-width="3" stroke-linecap="round" stroke-linejoin="round"/>
<path d="M46.4981 32.9566L38.7463 28.527" stroke="#191919" stroke-width="3" stroke-linecap="round" stroke-linejoin="round"/>
<path d="M49.2665 29.0807L41.5147 24.6511" stroke="#191919" stroke-width="3" stroke-linecap="round" stroke-linejoin="round"/>
<path d="M38.4693 43.4769C36.9005 42.4618 33.2645 41.1513 31.2712 44.0306C29.2779 46.9098 30.9944 49.8444 32.1017 50.9518" stroke="#191919" stroke-width="3"/>
<path d="M12.1688 13.0235L2.75595 7.48651" stroke="#191919" stroke-width="2" stroke-linecap="round" stroke-linejoin="round"/>
<path d="M23.5195 19.391L21.0279 18.0068" stroke="#191919" stroke-width="3" stroke-linecap="round" stroke-linejoin="round"/>
<path d="M25.7344 15.5151L23.2428 14.1309" stroke="#191919" stroke-width="3" stroke-linecap="round" stroke-linejoin="round"/>
<path d="M21.3049 23.2669L18.8132 21.8826" stroke="#191919" stroke-width="3" stroke-linecap="round" stroke-linejoin="round"/>
<path d="M16.0447 10.8087L12.7225 16.3457" stroke="#191919" stroke-width="3"/>
<path d="M18.2596 12.4698L14.9374 18.0068" stroke="#191919" stroke-width="3"/>
<path d="M21.1343 13.6466L15.0437 10.6013C11.4447 8.9402 7.84563 13.6466 11.4446 16.4151L17.5353 20.0141" stroke="#191919" stroke-width="3"/>
<path d="M27.6724 13.5772L24.0734 11.3624C23.612 11.1778 22.5231 10.9748 21.8586 11.6392C21.1942 12.3037 17.7059 18.3759 16.0448 21.3289C15.5834 21.9749 14.9374 23.433 16.0448 24.0974C17.1522 24.7619 18.721 25.6662 19.367 26.0354" stroke="#191919" stroke-width="3"/>
<path d="M31.8252 35.7251L24.3503 44.5842L19.9207 42.0926C18.8133 41.5389 17.7059 41.5389 16.8754 42.6463L15.2143 45.1379L29.8872 53.7202L40.9612 40.7084M40.9612 40.7084L43.7297 42.0926C44.2834 42.1849 45.6122 42.2033 46.4981 41.5389C47.3841 40.8745 51.8506 32.5875 53.9731 28.527C54.0653 27.881 53.9731 26.423 52.8657 25.7585C51.7583 25.0941 38.0081 17.1762 31.2715 13.3004C30.4409 12.8389 28.503 12.193 27.3956 13.3004C26.2882 14.4077 21.9509 22.0672 19.9207 25.7585C19.6438 26.4968 19.4777 28.1948 21.0281 29.0807C22.5784 29.9666 34.9628 37.2016 40.9612 40.7084Z" stroke="#191919" stroke-width="3" stroke-linejoin="round"/>
</svg>
