<svg width="56" height="56" viewBox="0 0 56 56" fill="none" xmlns="http://www.w3.org/2000/svg">
<path d="M15.4014 32.1138C14.347 29.3022 12.5898 25.7877 10.1296 22.9761L10.4811 27.1935V30.708C9.77816 33.8711 9.07526 33.1682 6.61509 38.7914C3.83672 45.142 10.8325 50.7408 20.3217 51.4437C29.811 52.1466 32.9741 45.469 32.9741 39.4943C32.9741 37.9714 32.6226 34.2225 31.2168 31.4109C29.811 28.5993 31.8025 22.7418 32.9741 20.1644C28.4755 21.5702 26.4136 26.842 25.945 29.3022C22.2899 25.0848 23.1334 16.5328 24.1877 13.1354C15.7529 17.3528 16.4558 27.1935 15.4014 32.1138Z" stroke="#191919" stroke-width="3"/>
<path d="M18.5862 39.428C18.2291 38.5006 17.9921 37.9616 17.1587 37.0342V38.0886L16.9194 38.9643C16.4558 40.5487 16.4432 39.7757 15.6098 41.6305C14.6686 43.7251 16.7557 46.643 19.9703 46.8749C23.1849 47.1067 24.5392 43.833 24.5392 41.8623C24.5392 41.36 24.4201 40.1235 23.9439 39.1961C23.4676 38.2688 24.1423 36.3367 24.5392 35.4866C23.0152 35.9503 21.7214 38.1528 21.5627 38.9643C20.3245 37.5732 21.2055 34.2888 21.5627 33.1682C18.7053 34.5593 18.9434 37.8051 18.5862 39.428Z" stroke="#191919" stroke-width="2"/>
<path d="M49.1103 5H42.6076L36.8275 16.0786H40.6809L36.8275 22.5813H40.6809L37.3092 32.4557L50.7962 16.0786L46.9428 17.5237L44.0527 19.4504L50.0737 9.57596L44.0527 12.7069L49.1103 5Z" stroke="#191919" stroke-width="3" stroke-linecap="round" stroke-linejoin="round"/>
</svg>
