<svg width="56" height="56" viewBox="0 0 56 56" fill="none" xmlns="http://www.w3.org/2000/svg">
<path d="M29.6428 41.1429H35.119L34.2976 21.9762H31.0119L30.4643 41.1429" stroke="#191919" stroke-width="3"/>
<path d="M39.2263 41.1429H44.7025L43.881 21.9762H40.5953L40.0477 41.1429" stroke="#191919" stroke-width="3"/>
<path d="M16.5 41.1429H11.0238L11.8452 21.9762H15.1309L15.6785 41.1429" stroke="#191919" stroke-width="3"/>
<path d="M25.8095 41.1429H20.3333L21.1548 21.9762H24.4405L24.9881 41.1429" stroke="#191919" stroke-width="3"/>
<path d="M48.5358 16.2262H7.73812V14.5833L28.0001 5L48.5358 14.5833V16.2262Z" stroke="#191919" stroke-width="3"/>
<path d="M44.4286 18.1429H11.5714V20.3334H44.4286V18.1429Z" stroke="#191919" stroke-width="2"/>
<path d="M27.7262 43.3334H10.2024V45.7977H7.46429V47.9881H5V51.0001H27.7262" stroke="#191919" stroke-width="3"/>
<path d="M27.4524 43.3334H44.9762V45.7977H47.7143V47.9881H50.1786V51.0001H27.4524" stroke="#191919" stroke-width="3"/>
</svg>
