<svg width="56" height="56" viewBox="0 0 56 56" fill="none" xmlns="http://www.w3.org/2000/svg">
<path d="M27.3527 49.2948L20.7826 43.9566" stroke="#191919" stroke-width="3" stroke-linecap="round" stroke-linejoin="round"/>
<path d="M18.1136 40.6716C16.8817 37.7972 19.9614 34.3753 20.372 34.1015" stroke="#191919" stroke-width="3" stroke-linecap="round" stroke-linejoin="bevel"/>
<path d="M22.4251 31.2271C25.2643 28.3363 26.6194 27.0113 26.942 26.7102" stroke="#191919" stroke-width="3" stroke-linecap="round" stroke-linejoin="bevel"/>
<path d="M28.7899 23.8358C29.5427 23.1514 30.6377 22.3986 30.6377 20.5507" stroke="#191919" stroke-width="2" stroke-linecap="round" stroke-linejoin="bevel"/>
<path d="M30.4325 17.2657C29.1184 15.2947 28.1056 14.5282 27.7634 14.3913" stroke="#191919" stroke-width="2" stroke-linecap="round" stroke-linejoin="bevel"/>
<path d="M49.2553 49.2948C44.4372 47.0694 28.4775 40.5955 30.0584 33.3123C31.4678 26.8193 41.1248 21.1737 35.9304 16.7229C31.7748 13.1622 26.3262 9.25846 19.9614 7" stroke="#191919" stroke-width="3" stroke-linecap="round" stroke-linejoin="round"/>
<path d="M14.5571 49.5001C10.3139 47.2417 2.9363 41.575 7.37109 36.9759C12.9146 31.2271 19.2793 28.1474 23.1803 23.6305C23.1803 23.6305 31.5982 14.5967 17.0209 8.02661" stroke="#191919" stroke-width="3" stroke-linecap="round" stroke-linejoin="round"/>
</svg>
