<svg width="56" height="62" viewBox="0 0 56 62" fill="none" xmlns="http://www.w3.org/2000/svg">
<g clip-path="url(#clip0)">
<path d="M28.2812 6L2 32.2812L6.54244 37.1481L28.2812 15.7338L49.6956 37.1481L54.5625 32.2812L28.2812 6Z" stroke="#191919" stroke-width="3" stroke-linejoin="round"/>
<path d="M10.1115 33.9036V55.9668H46.451V34.228" stroke="#191919" stroke-width="3" stroke-linecap="round" stroke-linejoin="round"/>
<path d="M45.4776 38.7704H40.6107V46.5575H45.4776" stroke="#191919" stroke-width="3"/>
<path d="M39.9618 40.0683H37.6906V38.1215L35.4194 40.3928H32.1748C31.9585 39.6357 31.3312 38.1215 30.5525 38.1215V36.8237H32.1748C31.5258 35.8503 30.0333 33.9036 29.2546 33.9036H28.9302V29.3611C29.1465 29.4693 29.644 29.4909 29.9035 28.7122H33.1481C33.7971 28.9285 35.0949 29.1016 35.0949 28.0633C35.0949 26.7654 33.4726 27.0899 33.1481 27.4144L29.9035 27.4144C29.5791 27.0899 28.9302 26.441 27.9568 26.441" stroke="#191919" stroke-width="2" stroke-linecap="round" stroke-linejoin="round"/>
<path d="M27.9568 26.441C26.6589 26.441 26.01 27.0899 25.6856 27.4144L22.441 27.4144C22.1165 27.0899 20.4942 26.7654 20.4942 28.0633C20.4942 29.1016 21.792 28.9285 22.441 28.7122H25.6856C25.9451 29.4909 26.4426 29.4693 26.6589 29.3611V33.9036H26.3345C25.5558 33.9036 24.0633 35.8503 23.4143 36.8237H25.0366V38.1215C24.0633 38.446 23.7388 38.7705 23.4143 39.4194C22.0083 39.7438 19.0017 40.7821 18.223 42.3395C17.5741 43.0966 16.3411 45.3245 16.6007 48.1798H21.4676C21.3594 47.3146 21.4676 45.3894 22.7654 44.6107C23.5225 44.1781 25.0366 44.2863 26.3345 45.2597C28.2812 45.9086 29.5791 45.5841 30.8769 44.2863H35.0949L37.6906 46.882V44.9352H39.9618" stroke="#191919" stroke-width="2" stroke-linecap="round" stroke-linejoin="round"/>
</g>
<defs>
<clipPath id="clip0">
<rect width="56" height="61.1692" fill="white"/>
</clipPath>
</defs>
</svg>
