<svg width="24" height="24" viewBox="0 0 24 24" fill="none" xmlns="http://www.w3.org/2000/svg">
<path d="M12 7.99997C11.7664 7.99951 11.5399 8.08089 11.36 8.22997L5.36003 13.23C5.15581 13.3997 5.02739 13.6436 5.00301 13.908C4.97863 14.1725 5.06029 14.4358 5.23003 14.64C5.39977 14.8442 5.64368 14.9726 5.90811 14.997C6.17253 15.0214 6.43581 14.9397 6.64003 14.77L12 10.29L17.36 14.61C17.4623 14.693 17.58 14.7551 17.7064 14.7925C17.8327 14.8299 17.9652 14.842 18.0962 14.8281C18.2272 14.8141 18.3542 14.7744 18.4699 14.7113C18.5855 14.6481 18.6875 14.5627 18.77 14.46C18.8616 14.3571 18.931 14.2365 18.9738 14.1056C19.0166 13.9748 19.0319 13.8365 19.0187 13.6994C19.0056 13.5623 18.9643 13.4295 18.8974 13.3091C18.8305 13.1888 18.7395 13.0835 18.63 13L12.63 8.16997C12.4449 8.04445 12.2231 7.9846 12 7.99997Z" fill="#717171"/>
</svg>
