<svg width="56" height="62" viewBox="0 0 56 62" fill="none" xmlns="http://www.w3.org/2000/svg">
<g clip-path="url(#clip0)">
<path d="M28.2812 6L2 32.2812L6.54244 37.1481L28.2812 15.7338L49.6956 37.1481L54.5625 32.2812L28.2812 6Z" stroke="#191919" stroke-width="3" stroke-linejoin="round"/>
<path d="M10.1116 33.9036V55.9668H46.4511V34.228" stroke="#191919" stroke-width="3" stroke-linecap="round" stroke-linejoin="round"/>
<path d="M45.4777 38.7705H40.6108V46.5575H45.4777" stroke="#191919" stroke-width="3"/>
<path d="M39.9618 40.0682H37.6906V38.1215L35.4194 40.3927H32.1748C31.9585 39.6356 31.3312 38.1215 30.5525 38.1215V36.8236H32.1748C31.5258 35.8503 30.0333 33.9035 29.2546 33.9035H28.9302V29.3611C29.1465 29.4692 29.644 29.4908 29.9035 28.7121H33.1481C33.7971 28.9284 35.0949 29.1015 35.0949 28.0632C35.0949 26.7654 33.4726 27.0898 33.1481 27.4143L29.9035 27.4143C29.5791 27.0898 28.9302 26.4409 27.9568 26.4409" stroke="#191919" stroke-width="2" stroke-linecap="round" stroke-linejoin="round"/>
<path d="M27.9569 26.4409C26.6591 26.4409 26.0101 27.0898 25.6857 27.4143L22.4411 27.4143C22.1166 27.0898 20.4943 26.7654 20.4943 28.0632C20.4943 29.1015 21.7922 28.9284 22.4411 28.7121H25.6857C25.9452 29.4908 26.4428 29.4692 26.6591 29.3611V33.9035H26.3346C25.5559 33.9035 24.0634 35.8503 23.4145 36.8236H25.0368V38.1215C24.0634 38.4459 23.7389 38.7704 23.4145 39.4193C22.0085 39.7438 19.0018 40.782 18.2231 42.3395C17.5742 43.0965 16.3412 45.3245 16.6008 48.1797H21.4677C21.3595 47.3145 21.4677 45.3894 22.7655 44.6107C23.5226 44.1781 25.0368 44.2862 26.3346 45.2596C28.2814 45.9085 29.5792 45.5841 30.877 44.2862H35.095L37.6907 46.8819V44.9351H39.9619" stroke="#191919" stroke-width="2" stroke-linecap="round" stroke-linejoin="round"/>
</g>
<defs>
<clipPath id="clip0">
<rect width="56" height="61.1692" fill="white"/>
</clipPath>
</defs>
</svg>
