<svg width="32" height="32" viewBox="0 0 32 32" fill="none" xmlns="http://www.w3.org/2000/svg">
<path fill-rule="evenodd" clip-rule="evenodd" d="M1.87085 16C1.87085 12.2528 3.35944 8.65899 6.00916 6.00928C8.65887 3.35957 12.2527 1.87097 15.9999 1.87097C19.7472 1.87097 23.341 3.35957 25.9907 6.00928C28.6404 8.65899 30.129 12.2528 30.129 16C30.129 19.7473 28.6404 23.3411 25.9907 25.9908C23.341 28.6405 19.7472 30.1291 15.9999 30.1291C12.2527 30.1291 8.65887 28.6405 6.00916 25.9908C3.35944 23.3411 1.87085 19.7473 1.87085 16ZM15.9999 3.89764C12.7902 3.89764 9.71187 5.17271 7.44223 7.44235C5.17259 9.71199 3.89752 12.7903 3.89752 16C3.89752 19.2098 5.17259 22.2881 7.44223 24.5577C9.71187 26.8274 12.7902 28.1024 15.9999 28.1024C19.2097 28.1024 22.288 26.8274 24.5576 24.5577C26.8272 22.2881 28.1023 19.2098 28.1023 16C28.1023 12.7903 26.8272 9.71199 24.5576 7.44235C22.288 5.17271 19.2097 3.89764 15.9999 3.89764ZM21.0218 10.9803C21.2218 11.1803 21.3341 11.4516 21.3341 11.7344C21.3341 12.0173 21.2218 12.2885 21.0218 12.4886L17.5082 16L21.0218 19.5115C21.2221 19.7118 21.3346 19.9834 21.3346 20.2667C21.3346 20.55 21.2221 20.8216 21.0218 21.0219C20.8215 21.2222 20.5498 21.3347 20.2666 21.3347C19.9833 21.3347 19.7117 21.2222 19.5114 21.0219L15.9999 17.5083L12.4885 21.0219C12.3893 21.1211 12.2715 21.1997 12.142 21.2534C12.0124 21.3071 11.8735 21.3347 11.7333 21.3347C11.593 21.3347 11.4541 21.3071 11.3245 21.2534C11.195 21.1997 11.0772 21.1211 10.9781 21.0219C10.8789 20.9227 10.8002 20.805 10.7465 20.6754C10.6929 20.5458 10.6652 20.407 10.6652 20.2667C10.6652 20.1265 10.6929 19.9876 10.7465 19.858C10.8002 19.7284 10.8789 19.6107 10.9781 19.5115L14.4917 16L10.9781 12.4886C10.7778 12.2883 10.6652 12.0166 10.6652 11.7334C10.6652 11.4501 10.7778 11.1785 10.9781 10.9782C11.1783 10.7779 11.45 10.6654 11.7333 10.6654C12.0165 10.6654 12.2882 10.7779 12.4885 10.9782L15.9999 14.4918L19.5114 10.9782C19.6105 10.8788 19.7282 10.8 19.8578 10.7463C19.9874 10.6925 20.1263 10.6648 20.2666 10.6648C20.4069 10.6648 20.5458 10.6925 20.6754 10.7463C20.805 10.8 20.9227 10.8788 21.0218 10.9782V10.9803Z" fill="#D0D0D0"/>
</svg>
