<svg width="32" height="32" viewBox="0 0 32 32" fill="none" xmlns="http://www.w3.org/2000/svg">
<g clip-path="url(#clip0)">
<path fill-rule="evenodd" clip-rule="evenodd" d="M30 16C30 12.287 28.525 8.72602 25.8995 6.10051C23.274 3.475 19.713 2 16 2C12.287 2 8.72601 3.475 6.10051 6.10051C3.475 8.72602 2 12.287 2 16C2 19.713 3.475 23.274 6.1005 25.8995C8.72601 28.525 12.287 30 16 30C19.713 30 23.274 28.525 25.8995 25.8995C28.525 23.274 30 19.713 30 16ZM32 16C32 11.7565 30.3143 7.68687 27.3137 4.68629C24.3131 1.68571 20.2435 2.41401e-07 16 1.90798e-07C11.7565 1.40195e-07 7.68687 1.68571 4.68629 4.68629C1.68571 7.68687 2.41401e-07 11.7565 1.90798e-07 16C1.40195e-07 20.2435 1.68571 24.3131 4.68629 27.3137C7.68687 30.3143 11.7565 32 16 32C20.2435 32 24.3131 30.3143 27.3137 27.3137C30.3143 24.3131 32 20.2435 32 16Z" fill="#D0D0D0"/>
<path fill-rule="evenodd" clip-rule="evenodd" d="M16.7079 22.708C16.801 22.6152 16.8749 22.5048 16.9253 22.3833C16.9757 22.2618 17.0017 22.1316 17.0017 22C17.0017 21.8685 16.9757 21.7383 16.9253 21.6168C16.8749 21.4953 16.801 21.3849 16.7079 21.292L11.4139 16L16.7079 10.708C16.8957 10.5203 17.0012 10.2656 17.0012 10C17.0012 9.73449 16.8957 9.47982 16.7079 9.29205C16.5201 9.10427 16.2655 8.99878 15.9999 8.99878C15.7344 8.99878 15.4797 9.10427 15.2919 9.29205L9.29191 15.292C9.19878 15.3849 9.1249 15.4953 9.07448 15.6168C9.02407 15.7383 8.99812 15.8685 8.99812 16C8.99812 16.1316 9.02407 16.2618 9.07448 16.3833C9.1249 16.5048 9.19878 16.6152 9.29191 16.708L15.2919 22.708C15.3848 22.8012 15.4952 22.8751 15.6166 22.9255C15.7381 22.9759 15.8684 23.0018 15.9999 23.0018C16.1314 23.0018 16.2617 22.9759 16.3832 22.9255C16.5047 22.8751 16.615 22.8012 16.7079 22.708Z" fill="#D0D0D0"/>
<path fill-rule="evenodd" clip-rule="evenodd" d="M23 16C23 15.7348 22.8946 15.4804 22.7071 15.2929C22.5196 15.1054 22.2652 15 22 15L12 15C11.7348 15 11.4804 15.1054 11.2929 15.2929C11.1054 15.4804 11 15.7348 11 16C11 16.2652 11.1054 16.5196 11.2929 16.7071C11.4804 16.8946 11.7348 17 12 17L22 17C22.2652 17 22.5196 16.8946 22.7071 16.7071C22.8946 16.5196 23 16.2652 23 16Z" fill="#D0D0D0"/>
</g>
<defs>
<clipPath id="clip0">
<rect width="32" height="32" fill="white" transform="translate(0 32) rotate(-90)"/>
</clipPath>
</defs>
</svg>
