<svg width="28" height="26" viewBox="0 0 28 26" fill="none" xmlns="http://www.w3.org/2000/svg">
<path d="M24.6667 8.66669H17.1841L18.6814 4.17735C18.9507 3.36669 18.8147 2.46802 18.3147 1.77469C17.8147 1.08135 17.0041 0.666687 16.1494 0.666687H14.0001C13.6041 0.666687 13.2294 0.842687 12.9747 1.14669L6.70808 8.66669H3.33341C1.86275 8.66669 0.666748 9.86269 0.666748 11.3334V23.3334C0.666748 24.804 1.86275 26 3.33341 26H21.0761C21.6186 25.9982 22.1478 25.8318 22.5937 25.5228C23.0396 25.2138 23.3812 24.7767 23.5734 24.2694L27.2494 14.468C27.3052 14.3183 27.3337 14.1598 27.3334 14V11.3334C27.3334 9.86269 26.1374 8.66669 24.6667 8.66669ZM3.33341 11.3334H6.00008V23.3334H3.33341V11.3334ZM24.6667 13.7587L21.0761 23.3334H8.66675V10.4827L14.6241 3.33335H16.1521L14.0694 9.57735C14.0018 9.77777 13.9829 9.99142 14.0144 10.2006C14.0459 10.4098 14.1267 10.6084 14.2503 10.7801C14.3739 10.9517 14.5366 11.0915 14.7249 11.1877C14.9133 11.2839 15.1219 11.3339 15.3334 11.3334H24.6667V13.7587Z" fill="white"/>
</svg>
