<svg width="32" height="32" viewBox="0 0 32 32" fill="none" xmlns="http://www.w3.org/2000/svg">
<path d="M5.33332 28H6.66666V10.6666H5.33332C4.62608 10.6666 3.9478 10.9476 3.4477 11.4477C2.94761 11.9478 2.66666 12.626 2.66666 13.3333V25.3333C2.66666 26.0405 2.94761 26.7188 3.4477 27.2189C3.9478 27.719 4.62608 28 5.33332 28ZM26.6667 10.6666H17.3333L18.8293 6.17596C18.9628 5.77518 18.9992 5.34842 18.9354 4.93083C18.8717 4.51325 18.7096 4.11678 18.4626 3.77409C18.2156 3.43139 17.8908 3.15228 17.5148 2.95974C17.1388 2.7672 16.7224 2.66674 16.3 2.66663H16L9.33332 9.91729V28H24L29.216 16.5386L29.3333 16V13.3333C29.3333 12.626 29.0524 11.9478 28.5523 11.4477C28.0522 10.9476 27.3739 10.6666 26.6667 10.6666Z" fill="white"/>
</svg>
