<svg width="255" height="255" viewBox="0 0 255 255" fill="none" xmlns="http://www.w3.org/2000/svg">
<g filter="url(#filter0_d)">
<path fill-rule="evenodd" clip-rule="evenodd" d="M127.5 231.562C156.16 231.562 183.646 220.177 203.912 199.912C224.177 179.646 235.562 152.16 235.562 123.5C235.562 94.84 224.177 67.3539 203.912 47.0883C183.646 26.8226 156.16 15.4375 127.5 15.4375C98.84 15.4375 71.3539 26.8226 51.0883 47.0883C30.8226 67.3539 19.4375 94.84 19.4375 123.5C19.4375 152.16 30.8226 179.646 51.0883 199.912C71.3539 220.177 98.84 231.562 127.5 231.562ZM127.5 247C160.254 247 191.667 233.988 214.828 210.828C237.988 187.667 251 156.254 251 123.5C251 90.7458 237.988 59.3331 214.828 36.1723C191.667 13.0116 160.254 0 127.5 0C94.7458 0 63.3331 13.0116 40.1723 36.1723C17.0116 59.3331 4 90.7458 4 123.5C4 156.254 17.0116 187.667 40.1723 210.828C63.3331 233.988 94.7458 247 127.5 247Z" fill="#F5D751"/>
<path fill-rule="evenodd" clip-rule="evenodd" d="M173.349 76.7244C175.51 74.5827 178.426 73.3775 181.468 73.3691C184.51 73.3607 187.433 74.5499 189.606 76.6795C191.778 78.8092 193.025 81.7082 193.077 84.7498C193.128 87.7915 191.981 90.7313 189.883 92.9337L128.256 169.967C127.197 171.108 125.919 172.023 124.498 172.659C123.077 173.294 121.542 173.637 119.986 173.665C118.429 173.694 116.883 173.409 115.439 172.826C113.996 172.244 112.684 171.376 111.584 170.276L70.7515 129.428C69.6139 128.368 68.7015 127.09 68.0687 125.67C67.4359 124.249 67.0956 122.716 67.0682 121.162C67.0408 119.607 67.3268 118.063 67.9091 116.621C68.4914 115.179 69.3581 113.87 70.4576 112.77C71.557 111.671 72.8666 110.804 74.3083 110.222C75.75 109.64 77.2942 109.354 78.8488 109.381C80.4034 109.408 81.9365 109.749 83.3568 110.382C84.777 111.014 86.0552 111.927 87.1152 113.064L119.441 145.375L173.056 77.064C173.151 76.9444 173.255 76.831 173.365 76.7244H173.349Z" fill="#F5D751"/>
</g>
<defs>
<filter id="filter0_d" x="0" y="0" width="255" height="255" filterUnits="userSpaceOnUse" color-interpolation-filters="sRGB">
<feFlood flood-opacity="0" result="BackgroundImageFix"/>
<feColorMatrix in="SourceAlpha" type="matrix" values="0 0 0 0 0 0 0 0 0 0 0 0 0 0 0 0 0 0 127 0"/>
<feOffset dy="4"/>
<feGaussianBlur stdDeviation="2"/>
<feColorMatrix type="matrix" values="0 0 0 0 0.196078 0 0 0 0 0.155451 0 0 0 0 0.0509804 0 0 0 0.25 0"/>
<feBlend mode="normal" in2="BackgroundImageFix" result="effect1_dropShadow"/>
<feBlend mode="normal" in="SourceGraphic" in2="effect1_dropShadow" result="shape"/>
</filter>
</defs>
</svg>
