<svg width="134" height="134" viewBox="0 0 134 134" fill="none" xmlns="http://www.w3.org/2000/svg">
<g filter="url(#filter0_d)">
<path fill-rule="evenodd" clip-rule="evenodd" d="M67 118.125C81.6201 118.125 95.6413 112.317 105.979 101.979C116.317 91.6413 122.125 77.6201 122.125 63C122.125 48.3799 116.317 34.3587 105.979 24.0207C95.6413 13.6828 81.6201 7.875 67 7.875C52.3799 7.875 38.3587 13.6828 28.0207 24.0207C17.6828 34.3587 11.875 48.3799 11.875 63C11.875 77.6201 17.6828 91.6413 28.0207 101.979C38.3587 112.317 52.3799 118.125 67 118.125ZM67 126C83.7086 126 99.7329 119.363 111.548 107.548C123.363 95.7329 130 79.7086 130 63C130 46.2914 123.363 30.2671 111.548 18.4523C99.7329 6.63748 83.7086 0 67 0C50.2914 0 34.2671 6.63748 22.4523 18.4523C10.6375 30.2671 4 46.2914 4 63C4 79.7086 10.6375 95.7329 22.4523 107.548C34.2671 119.363 50.2914 126 67 126Z" fill="#FFED00"/>
<path fill-rule="evenodd" clip-rule="evenodd" d="M90.3882 39.1387C91.4903 38.0463 92.9781 37.4314 94.5299 37.4271C96.0817 37.4228 97.5729 38.0295 98.681 39.1159C99.7891 40.2022 100.425 41.6811 100.452 43.2327C100.478 44.7843 99.8928 46.284 98.8223 47.4075L67.3853 86.7037C66.845 87.2857 66.1929 87.7527 65.468 88.0769C64.7431 88.401 63.9603 88.5757 63.1663 88.5904C62.3724 88.6051 61.5836 88.4595 60.8472 88.1624C60.1108 87.8653 59.4418 87.4228 58.8803 86.8612L38.051 66.024C37.4707 65.4833 37.0053 64.8312 36.6824 64.1067C36.3596 63.3822 36.1861 62.6001 36.1721 61.8071C36.1581 61.0141 36.304 60.2263 36.601 59.4909C36.8981 58.7555 37.3402 58.0874 37.901 57.5266C38.4619 56.9657 39.13 56.5236 39.8654 56.2265C40.6008 55.9295 41.3886 55.7836 42.1816 55.7976C42.9746 55.8116 43.7567 55.9851 44.4812 56.308C45.2057 56.6308 45.8578 57.0962 46.3985 57.6765L62.8887 74.1589L90.2386 39.312C90.2874 39.251 90.34 39.1931 90.3961 39.1387H90.3882Z" fill="#FFED00"/>
</g>
<defs>
<filter id="filter0_d" x="0" y="0" width="134" height="134" filterUnits="userSpaceOnUse" color-interpolation-filters="sRGB">
<feFlood flood-opacity="0" result="BackgroundImageFix"/>
<feColorMatrix in="SourceAlpha" type="matrix" values="0 0 0 0 0 0 0 0 0 0 0 0 0 0 0 0 0 0 127 0"/>
<feOffset dy="4"/>
<feGaussianBlur stdDeviation="2"/>
<feColorMatrix type="matrix" values="0 0 0 0 0.196078 0 0 0 0 0.155451 0 0 0 0 0.0509804 0 0 0 0.25 0"/>
<feBlend mode="normal" in2="BackgroundImageFix" result="effect1_dropShadow"/>
<feBlend mode="normal" in="SourceGraphic" in2="effect1_dropShadow" result="shape"/>
</filter>
</defs>
</svg>
