<svg width="104" height="104" viewBox="0 0 104 104" fill="none" xmlns="http://www.w3.org/2000/svg">
<g filter="url(#filter0_d)">
<path d="M54.0283 70.3818H62.9374L61.601 39.2H56.2556L55.3647 70.3818" stroke="#191919" stroke-width="3"/>
<path d="M69.6194 70.3818H78.5285L77.1921 39.2H71.8467L70.9557 70.3818" stroke="#191919" stroke-width="3"/>
<path d="M32.6465 70.3818H23.7374L25.0738 39.2H30.4192L31.3101 70.3818" stroke="#191919" stroke-width="3"/>
<path d="M47.792 70.3818H38.8829L40.2193 39.2H45.5647L46.4556 70.3818" stroke="#191919" stroke-width="3"/>
<path d="M84.7648 29.8454H18.3921V27.1727L51.3557 11.5818L84.7648 27.1727V29.8454Z" stroke="#191919" stroke-width="3"/>
<path d="M78.083 32.9636H24.6284V36.5272H78.083V32.9636Z" stroke="#191919" stroke-width="2"/>
<path d="M50.9102 73.9454H22.4011V77.9545H17.9466V81.5182H13.9375V86.4182H50.9102" stroke="#191919" stroke-width="3"/>
<path d="M50.4648 73.9454H78.9739V77.9545H83.4284V81.5182H87.4375V86.4182H50.4648" stroke="#191919" stroke-width="3"/>
</g>
<defs>
<filter id="filter0_d" x="-4" y="0" width="112" height="112" filterUnits="userSpaceOnUse" color-interpolation-filters="sRGB">
<feFlood flood-opacity="0" result="BackgroundImageFix"/>
<feColorMatrix in="SourceAlpha" type="matrix" values="0 0 0 0 0 0 0 0 0 0 0 0 0 0 0 0 0 0 127 0"/>
<feOffset dy="4"/>
<feGaussianBlur stdDeviation="2"/>
<feColorMatrix type="matrix" values="0 0 0 0 0 0 0 0 0 0 0 0 0 0 0 0 0 0 0.25 0"/>
<feBlend mode="normal" in2="BackgroundImageFix" result="effect1_dropShadow"/>
<feBlend mode="normal" in="SourceGraphic" in2="effect1_dropShadow" result="shape"/>
</filter>
</defs>
</svg>
