<svg width="104" height="104" viewBox="0 0 104 104" fill="none" xmlns="http://www.w3.org/2000/svg">
<g filter="url(#filter0_d)">
<path d="M62.6668 38.6048C62.1662 39.0715 61.691 39.4449 61.2413 39.7249C60.7915 40.0049 60.4097 40.1916 60.0957 40.2849L59.1539 38.3503C59.4 38.2909 59.7012 38.1679 60.0576 37.9812C60.4224 37.786 60.8128 37.5145 61.2285 37.1666L58.6193 34.5574C58.2375 34.7016 57.8429 34.8331 57.4356 34.9519C57.0368 35.0622 56.6338 35.1174 56.2265 35.1174C55.8192 35.1174 55.4119 35.041 55.0046 34.8883C54.5973 34.7186 54.1985 34.4386 53.8082 34.0483C53.0784 33.3185 52.7051 32.5633 52.6881 31.7827C52.6711 30.9851 52.9342 30.1959 53.4772 29.4153L52.319 28.257L53.6427 26.9333L54.75 28.0407C55.1488 27.6928 55.5264 27.417 55.8828 27.2134C56.2392 27.0097 56.5871 26.84 56.9265 26.7042L57.8811 28.5752C57.669 28.6516 57.4186 28.7662 57.1301 28.9189C56.8416 29.0716 56.5404 29.271 56.2265 29.5171L58.6066 31.8972C58.9884 31.753 59.3872 31.6257 59.803 31.5154C60.2188 31.3881 60.6303 31.3245 61.0376 31.3245C61.4534 31.316 61.8649 31.3881 62.2722 31.5409C62.6795 31.6766 63.0741 31.9354 63.4559 32.3173C64.2366 33.0979 64.6481 33.9082 64.6905 34.7483C64.733 35.5714 64.4742 36.3902 63.9141 37.2048L65.0978 38.3885L63.7741 39.7122L62.6668 38.6048ZM61.9922 34.1628C61.7207 33.8913 61.3898 33.781 60.9994 33.8319C60.6091 33.8658 60.1891 33.9634 59.7394 34.1246L62.0049 36.3902C62.3359 35.9744 62.4928 35.5798 62.4759 35.2065C62.4674 34.8247 62.3062 34.4768 61.9922 34.1628ZM55.3228 32.2536C55.5773 32.5082 55.887 32.6227 56.2519 32.5973C56.6253 32.5633 57.0326 32.47 57.4738 32.3173L55.4119 30.2553C55.03 30.6711 54.8518 31.0445 54.8773 31.3754C54.9112 31.6978 55.0597 31.9906 55.3228 32.2536Z" fill="#191919"/>
<path d="M34.0758 37.4039L64.5413 13.2682C65.386 12.5758 67.4315 11.6256 68.8558 13.3634L79.8341 26.7585C80.2297 27.2412 80.7182 28.5757 79.5075 30.0522L69.6502 37.872" stroke="#191919" stroke-width="3"/>
<path d="M29.3949 37.4039L42.874 12.0721C43.3941 11.1117 44.9283 9.45835 46.904 10.5283L59.8204 17.2763" stroke="#191919" stroke-width="3"/>
<path d="M30.3312 32.7231H24.7142C20.5014 32.7231 20.595 37.872 24.7142 37.872H79.9482C81.6645 37.716 85.1907 38.5273 85.5652 43.021V54.255" stroke="#191919" stroke-width="3" stroke-linecap="round" stroke-linejoin="round"/>
<path d="M85.5651 66.8933V78.5954C85.4715 80.5614 83.6928 82.3401 80.4162 82.3401H26.1183C21.4375 82.3401 21.4375 78.5954 21.4375 78.5954V36.4678M87.4375 53.7869H73.395C65.9056 53.7869 65.4375 66.4252 73.395 66.4252H87.4375V53.7869Z" stroke="#191919" stroke-width="3" stroke-linecap="round" stroke-linejoin="round"/>
<circle cx="73.8631" cy="59.872" r="1.80851" stroke="#191919" stroke-width="2"/>
</g>
<defs>
<filter id="filter0_d" x="-4" y="0" width="112" height="112" filterUnits="userSpaceOnUse" color-interpolation-filters="sRGB">
<feFlood flood-opacity="0" result="BackgroundImageFix"/>
<feColorMatrix in="SourceAlpha" type="matrix" values="0 0 0 0 0 0 0 0 0 0 0 0 0 0 0 0 0 0 127 0"/>
<feOffset dy="4"/>
<feGaussianBlur stdDeviation="2"/>
<feColorMatrix type="matrix" values="0 0 0 0 0 0 0 0 0 0 0 0 0 0 0 0 0 0 0.25 0"/>
<feBlend mode="normal" in2="BackgroundImageFix" result="effect1_dropShadow"/>
<feBlend mode="normal" in="SourceGraphic" in2="effect1_dropShadow" result="shape"/>
</filter>
</defs>
</svg>
