<svg width="104" height="104" viewBox="0 0 104 104" fill="none" xmlns="http://www.w3.org/2000/svg">
<g filter="url(#filter0_d)">
<path d="M50.9375 26H16.4375C16.4375 24.3333 17.2375 21 20.4375 21C23.6375 21 34.4375 21 39.4375 21C40.1042 20.8333 41.4375 20.2 41.4375 19C41.4375 17.8 41.4375 17.5 41.4375 17C41.4375 16 41.9375 15 43.9375 15C45.9375 15 49.4375 15 50.9375 15" stroke="#191919" stroke-width="3"/>
<path d="M50.9375 33L85.4375 33C85.4375 34.6667 84.6375 38 81.4375 38C80.4375 37.8333 78.4375 37.9 78.4375 39.5C78.4375 41.1 74.1042 70.8333 71.9375 85.5C71.9375 86.3333 71.4375 88.2 69.4375 89L50.9375 89" stroke="#191919" stroke-width="3"/>
<path d="M51.4375 33L16.9375 33C16.9375 34.6667 17.7375 38 20.9375 38C21.9375 37.8333 23.9375 37.9 23.9375 39.5C23.9375 41.1 28.2708 70.8333 30.4375 85.5C30.4375 86.3333 30.9375 88.2 32.9375 89L51.4375 89" stroke="#191919" stroke-width="3"/>
<path d="M50.9375 26H85.4375C85.4375 24.3333 84.6375 21 81.4375 21C78.2375 21 67.4375 21 62.4375 21C61.7708 20.8333 60.4375 20.2 60.4375 19C60.4375 17.8 60.4375 17.5 60.4375 17C60.4375 16 59.9375 15 57.9375 15C55.9375 15 52.4375 15 50.9375 15" stroke="#191919" stroke-width="3"/>
<path d="M44.8521 58.2737H38.2896C38.2355 58.2737 38.1815 58.2708 38.1277 58.2655C38.1033 58.2631 38.0798 58.2586 38.0558 58.2551C38.0268 58.251 37.9977 58.2476 37.9689 58.2418C37.9417 58.2363 37.9155 58.229 37.8888 58.2223C37.8635 58.216 37.8381 58.2104 37.8131 58.2028C37.7871 58.1949 37.7624 58.1853 37.7371 58.1762C37.7118 58.1672 37.6863 58.1588 37.6613 58.1486C37.6381 58.1389 37.6157 58.1274 37.5928 58.1167C37.5671 58.1047 37.5412 58.0932 37.5159 58.0797C37.4943 58.068 37.4737 58.0548 37.4527 58.0423C37.4278 58.0274 37.4025 58.0134 37.3782 57.9971C37.3555 57.9819 37.3342 57.9648 37.3123 57.9486C37.2912 57.933 37.2698 57.9183 37.2494 57.9015C37.2106 57.8695 37.1732 57.8358 37.1374 57.8003C37.1348 57.7979 37.132 57.7957 37.1295 57.7931C37.127 57.7905 37.1247 57.7876 37.1221 57.7849C37.0867 57.7492 37.0529 57.7119 37.0209 57.6731C37.0045 57.6531 36.9903 57.632 36.9749 57.6115C36.9583 57.5893 36.941 57.5675 36.9255 57.5443C36.9092 57.5201 36.8952 57.4951 36.8804 57.47C36.8678 57.449 36.8544 57.4283 36.8429 57.4066C36.8294 57.3814 36.8179 57.3555 36.8059 57.3298C36.7951 57.3069 36.7837 57.2846 36.774 57.2611C36.7636 57.2361 36.7553 57.2105 36.7461 57.185C36.7371 57.16 36.7275 57.1352 36.7197 57.1098C36.712 57.0839 36.7062 57.0578 36.6998 57.0319C36.6932 57.0059 36.6861 56.9803 36.6808 56.9539C36.6748 56.9238 36.6712 56.8934 36.6668 56.8629C36.6637 56.8403 36.6593 56.8182 36.6571 56.7952C36.6517 56.7411 36.6489 56.6866 36.6489 56.6324V50.0705C36.6489 49.6354 36.8218 49.2181 37.1295 48.9104C37.4371 48.6028 37.8544 48.4299 38.2896 48.4299C38.7247 48.4299 39.142 48.6028 39.4496 48.9104C39.7573 49.2181 39.9302 49.6354 39.9302 50.0705V52.6723L41.7699 50.8325C44.3359 48.2723 47.8126 46.8345 51.4374 46.8345C55.0621 46.8345 58.5389 48.2723 61.1049 50.8325C61.4084 51.141 61.5778 51.557 61.576 51.9898C61.5742 52.4226 61.4015 52.8371 61.0955 53.1432C60.7895 53.4492 60.3749 53.6219 59.9421 53.6237C59.5093 53.6255 59.0933 53.4561 58.7848 53.1526C56.8346 51.2069 54.1923 50.1141 51.4375 50.1141C48.6826 50.1141 46.0403 51.2069 44.0901 53.1526L42.2504 54.9926H44.8521C45.2872 54.9926 45.7045 55.1654 46.0121 55.4731C46.3198 55.7808 46.4927 56.1981 46.4927 56.6332C46.4927 57.0683 46.3198 57.4856 46.0121 57.7933C45.7045 58.101 45.2872 58.2738 44.8521 58.2738V58.2737ZM66.2176 64.2048C66.2154 64.1818 66.2111 64.1597 66.2079 64.1371C66.2036 64.1066 66.2 64.0762 66.194 64.0459C66.1888 64.0197 66.1815 63.994 66.1748 63.9681C66.1686 63.9422 66.1628 63.9161 66.1549 63.8902C66.1472 63.8646 66.1375 63.84 66.1286 63.815C66.1195 63.7895 66.1111 63.7639 66.1007 63.7389C66.091 63.7154 66.0796 63.6929 66.0689 63.6701C66.0567 63.6444 66.0454 63.6186 66.0318 63.5934C66.0202 63.5715 66.007 63.551 65.9944 63.53C65.9796 63.5051 65.9655 63.4799 65.9493 63.4557C65.9338 63.4325 65.9164 63.4107 65.8998 63.3885C65.8845 63.3679 65.8702 63.3469 65.8538 63.3269C65.8218 63.2881 65.7881 63.2507 65.7527 63.215L65.7453 63.2068C65.7427 63.204 65.7398 63.2021 65.7372 63.1996C65.7015 63.1642 65.6642 63.1305 65.6254 63.0985C65.6049 63.0815 65.5831 63.0668 65.5619 63.051C65.5403 63.0349 65.5191 63.0181 65.4966 63.003C65.472 62.9865 65.4464 62.9721 65.4211 62.9571C65.4005 62.9448 65.3802 62.9318 65.359 62.9205C65.3335 62.9068 65.3072 62.8952 65.2811 62.8829C65.2587 62.8723 65.2365 62.861 65.2136 62.8514C65.1881 62.841 65.1622 62.8326 65.1365 62.8233C65.1119 62.8145 65.0872 62.8049 65.062 62.7973C65.036 62.7895 65.0099 62.7836 64.9836 62.777C64.9579 62.7706 64.9325 62.7634 64.9062 62.7582C64.8759 62.7522 64.8454 62.7486 64.8149 62.7442C64.7923 62.7411 64.7702 62.7367 64.7475 62.7347C64.6932 62.7292 64.6389 62.7263 64.5845 62.7265H58.0227C57.5876 62.7265 57.1703 62.8993 56.8626 63.207C56.5549 63.5147 56.3821 63.932 56.3821 64.3671C56.3821 64.8022 56.5549 65.2195 56.8626 65.5272C57.1703 65.8349 57.5876 66.0077 58.0227 66.0077H60.6245L58.7847 67.8473C56.8345 69.793 54.1922 70.8857 51.4374 70.8857C48.6826 70.8857 46.0403 69.793 44.0901 67.8473C43.7816 67.5437 43.3656 67.3744 42.9328 67.3762C42.5 67.3779 42.0854 67.5506 41.7794 67.8567C41.4734 68.1627 41.3007 68.5773 41.2989 69.0101C41.2971 69.4429 41.4665 69.8589 41.77 70.1674C44.336 72.7275 47.8127 74.1653 51.4375 74.1653C55.0622 74.1653 58.5389 72.7275 61.1049 70.1674L62.9446 68.3278V70.9296C62.9446 71.3647 63.1174 71.782 63.4251 72.0897C63.7328 72.3974 64.1501 72.5702 64.5852 72.5702C65.0203 72.5702 65.4376 72.3974 65.7453 72.0897C66.053 71.782 66.2258 71.3647 66.2258 70.9296V64.3676C66.2258 64.3134 66.2231 64.2589 66.2176 64.2048Z" fill="#191919"/>
</g>
<defs>
<filter id="filter0_d" x="-4" y="0" width="112" height="112" filterUnits="userSpaceOnUse" color-interpolation-filters="sRGB">
<feFlood flood-opacity="0" result="BackgroundImageFix"/>
<feColorMatrix in="SourceAlpha" type="matrix" values="0 0 0 0 0 0 0 0 0 0 0 0 0 0 0 0 0 0 127 0"/>
<feOffset dy="4"/>
<feGaussianBlur stdDeviation="2"/>
<feColorMatrix type="matrix" values="0 0 0 0 0 0 0 0 0 0 0 0 0 0 0 0 0 0 0.25 0"/>
<feBlend mode="normal" in2="BackgroundImageFix" result="effect1_dropShadow"/>
<feBlend mode="normal" in="SourceGraphic" in2="effect1_dropShadow" result="shape"/>
</filter>
</defs>
</svg>
