<svg width="32" height="32" viewBox="0 0 32 32" fill="none" xmlns="http://www.w3.org/2000/svg">
<g clip-path="url(#clip0)">
<path fill-rule="evenodd" clip-rule="evenodd" d="M2 16C2 19.713 3.475 23.274 6.1005 25.8995C8.72601 28.525 12.287 30 16 30C19.713 30 23.274 28.525 25.8995 25.8995C28.525 23.274 30 19.713 30 16C30 12.287 28.525 8.72601 25.8995 6.1005C23.274 3.475 19.713 2 16 2C12.287 2 8.72601 3.47499 6.10051 6.1005C3.475 8.72601 2 12.287 2 16ZM-6.99382e-07 16C-8.8487e-07 20.2435 1.68571 24.3131 4.68629 27.3137C7.68687 30.3143 11.7565 32 16 32C20.2435 32 24.3131 30.3143 27.3137 27.3137C30.3143 24.3131 32 20.2435 32 16C32 11.7565 30.3143 7.68687 27.3137 4.68629C24.3131 1.68571 20.2435 -5.13895e-07 16 -6.99382e-07C11.7565 -8.8487e-07 7.68687 1.68571 4.68629 4.68629C1.68571 7.68687 -5.13895e-07 11.7565 -6.99382e-07 16Z" fill="#F36755"/>
<path fill-rule="evenodd" clip-rule="evenodd" d="M15.2921 9.29196C15.199 9.38485 15.1251 9.4952 15.0747 9.61669C15.0243 9.73818 14.9983 9.86842 14.9983 9.99996C14.9983 10.1315 15.0243 10.2617 15.0747 10.3832C15.1251 10.5047 15.199 10.6151 15.2921 10.708L20.5861 16L15.2921 21.292C15.1043 21.4797 14.9988 21.7344 14.9988 22C14.9988 22.2655 15.1043 22.5202 15.2921 22.708C15.4799 22.8957 15.7346 23.0012 16.0001 23.0012C16.2657 23.0012 16.5203 22.8957 16.7081 22.708L22.7081 16.708C22.8012 16.6151 22.8751 16.5047 22.9255 16.3832C22.9759 16.2617 23.0019 16.1315 23.0019 16C23.0019 15.8684 22.9759 15.7382 22.9255 15.6167C22.8751 15.4952 22.8012 15.3848 22.7081 15.292L16.7081 9.29196C16.6152 9.19883 16.5049 9.12494 16.3834 9.07453C16.2619 9.02412 16.1316 8.99817 16.0001 8.99817C15.8686 8.99817 15.7383 9.02412 15.6168 9.07453C15.4953 9.12494 15.385 9.19883 15.2921 9.29196Z" fill="#F36755"/>
<path fill-rule="evenodd" clip-rule="evenodd" d="M9 16C9 16.2652 9.10536 16.5196 9.29289 16.7071C9.48043 16.8946 9.73478 17 10 17L20 17C20.2652 17 20.5196 16.8946 20.7071 16.7071C20.8946 16.5196 21 16.2652 21 16C21 15.7348 20.8946 15.4804 20.7071 15.2929C20.5196 15.1054 20.2652 15 20 15L10 15C9.73478 15 9.48043 15.1054 9.29289 15.2929C9.10536 15.4804 9 15.7348 9 16Z" fill="#F36755"/>
</g>
<defs>
<clipPath id="clip0">
<rect width="32" height="32" fill="white" transform="translate(32) rotate(90)"/>
</clipPath>
</defs>
</svg>
